<?xml version="1.0" encoding="UTF-8" standalone="no"?>
<!-- Created with Inkscape (http://www.inkscape.org/) -->

<svg
   xmlns:dc="http://purl.org/dc/elements/1.1/"
   xmlns:cc="http://creativecommons.org/ns#"
   xmlns:rdf="http://www.w3.org/1999/02/22-rdf-syntax-ns#"
   xmlns:svg="http://www.w3.org/2000/svg"
   xmlns="http://www.w3.org/2000/svg"
   xmlns:sodipodi="http://sodipodi.sourceforge.net/DTD/sodipodi-0.dtd"
   xmlns:inkscape="http://www.inkscape.org/namespaces/inkscape"
   version="1.1"
   id="svg3718"
   xml:space="preserve"
   width="177.91287"
   height="55"
   viewBox="0 0 177.91287 55"
   sodipodi:docname="legion-logo-h2.svg"
   inkscape:version="0.92.4 (5da689c313, 2019-01-14)"><metadata
     id="metadata3724"><rdf:RDF><cc:Work
         rdf:about=""><dc:format>image/svg+xml</dc:format><dc:type
           rdf:resource="http://purl.org/dc/dcmitype/StillImage" /><dc:title></dc:title></cc:Work></rdf:RDF></metadata><defs
     id="defs3722"><linearGradient
       x1="0"
       y1="0"
       x2="1"
       y2="0"
       gradientUnits="userSpaceOnUse"
       gradientTransform="matrix(137.75551,-190.28098,-190.28098,-137.75551,250.22495,660.09253)"
       spreadMethod="pad"
       id="linearGradient3744"><stop
         style="stop-opacity:1;stop-color:#ed1c24"
         offset="0"
         id="stop3740" /><stop
         style="stop-opacity:1;stop-color:#faa519"
         offset="1"
         id="stop3742" /></linearGradient><clipPath
       clipPathUnits="userSpaceOnUse"
       id="clipPath3754"><path
         d="M 0,792 H 612 V 0 H 0 Z"
         id="path3752"
         inkscape:connector-curvature="0" /></clipPath><linearGradient
       x1="0"
       y1="0"
       x2="1"
       y2="0"
       gradientUnits="userSpaceOnUse"
       gradientTransform="matrix(68.877754,-95.140488,-95.140488,-68.877754,150.78966,215.90488)"
       spreadMethod="pad"
       id="linearGradient3816"><stop
         style="stop-opacity:1;stop-color:#ed1c24"
         offset="0"
         id="stop3812" /><stop
         style="stop-opacity:1;stop-color:#faa519"
         offset="1"
         id="stop3814" /></linearGradient></defs><sodipodi:namedview
     pagecolor="#ffffff"
     bordercolor="#666666"
     borderopacity="1"
     objecttolerance="10"
     gridtolerance="10"
     guidetolerance="10"
     inkscape:pageopacity="0"
     inkscape:pageshadow="2"
     inkscape:window-width="1920"
     inkscape:window-height="986"
     id="namedview3720"
     showgrid="false"
     inkscape:zoom="2.1666667"
     inkscape:cx="364.44416"
     inkscape:cy="-68.287691"
     inkscape:window-x="-11"
     inkscape:window-y="1285"
     inkscape:window-maximized="1"
     inkscape:current-layer="g3726"
     fit-margin-top="0"
     fit-margin-left="0"
     fit-margin-right="0"
     fit-margin-bottom="0" /><g
     id="g3726"
     inkscape:groupmode="layer"
     inkscape:label="Legion Logo"
     transform="matrix(1.3333333,0,0,-1.3333333,-0.4995932,1026.9281)"><g
       id="g3748"
       inkscape:export-xdpi="96"
       inkscape:export-ydpi="96"
       transform="matrix(0.35364025,0,0,0.35364025,-41.241759,684.79871)"><g
         id="g3750"
         clip-path="url(#clipPath3754)"><g
           id="g3778"
           transform="translate(258,204.458)"><path
             d="m 0,0 h 5.42 v -38.009 h 18.592 v -4.588 H 0 Z"
             style="fill:#1c1c1c;fill-opacity:1;fill-rule:nonzero;stroke:none"
             id="path3780"
             inkscape:connector-curvature="0" /></g><g
           id="g3782"
           transform="translate(294.4536,204.458)"><path
             d="M 0,0 H 24.552 V -4.588 H 5.42 v -13.348 h 16.139 v -4.586 H 5.42 V -38.009 H 25.2 v -4.588 H 0 Z"
             style="fill:#1c1c1c;fill-opacity:1;fill-rule:nonzero;stroke:none"
             id="path3784"
             inkscape:connector-curvature="0" /></g><g
           id="g3786"
           transform="translate(329.4307,183.1221)"><path
             d="m 0,0 c 0,13.738 8.259,22.114 19.551,22.114 5.903,0 9.79,-2.677 12.283,-5.254 l -2.97,-3.529 c -2.159,2.228 -4.892,4.019 -9.17,4.019 -8.582,0 -14.095,-6.595 -14.095,-17.206 0,-10.708 5.062,-17.418 14.15,-17.418 3.055,0 5.993,0.916 7.675,2.502 v 11.091 h -9.02 V 0.812 H 32.366 V -17.094 C 29.628,-19.949 24.962,-22.04 19.236,-22.04 7.999,-22.04 0,-13.834 0,0"
             style="fill:#1c1c1c;fill-opacity:1;fill-rule:nonzero;stroke:none"
             id="path3788"
             inkscape:connector-curvature="0" /></g><path
           d="m 376.293,204.458 h 5.421 v -42.597 h -5.421 z"
           style="fill:#1c1c1c;fill-opacity:1;fill-rule:nonzero;stroke:none"
           id="path3790"
           inkscape:connector-curvature="0" /><g
           id="g3792"
           transform="translate(426.2666,183.3125)"><path
             d="m 0,0 c 0,10.612 -5.002,17.159 -12.607,17.159 -7.606,0 -12.608,-6.547 -12.608,-17.159 0,-10.611 5.002,-17.465 12.608,-17.465 C -5.002,-17.465 0,-10.611 0,0 m -30.813,0 c 0,13.644 7.507,21.924 18.206,21.924 10.698,0 18.205,-8.305 18.205,-21.924 0,-13.642 -7.507,-22.23 -18.205,-22.23 -10.699,0 -18.206,8.588 -18.206,22.23"
             style="fill:#1c1c1c;fill-opacity:1;fill-rule:nonzero;stroke:none"
             id="path3794"
             inkscape:connector-curvature="0" /></g><g
           id="g3796"
           transform="translate(445.6689,204.458)"><path
             d="m 0,0 h 5.599 l 15.416,-26.78 4.598,-8.819 h 0.26 c -0.273,4.297 -0.689,9.098 -0.689,13.552 V 0 h 5.147 V -42.597 H 24.732 L 9.316,-15.794 4.719,-6.999 h -0.26 c 0.272,-4.31 0.688,-8.853 0.688,-13.306 V -42.597 H 0 Z"
             style="fill:#1c1c1c;fill-opacity:1;fill-rule:nonzero;stroke:none"
             id="path3798"
             inkscape:connector-curvature="0" /></g></g></g><g
       id="g3800"
       inkscape:export-xdpi="96"
       inkscape:export-ydpi="96"
       transform="matrix(0.35364025,0,0,0.35364025,-41.241759,684.79871)"><g
         id="g3802"><g
           id="g3808"><g
             id="g3810"><path
               d="m 136.678,193.608 h 29.999 v 3.847 c 0,1.009 -0.4,1.976 -1.114,2.689 v 0 l -2.929,2.928 c -1.09,-0.619 -2.349,-0.977 -3.693,-0.977 v 0 c -4.142,0 -7.5,3.358 -7.5,7.5 v 0 c 0,4.142 3.358,7.499 7.5,7.499 v 0 c 4.142,0 7.5,-3.357 7.5,-7.499 v 0 c 0,-1.344 -0.358,-2.603 -0.978,-3.695 v 0 l 2.582,-2.581 c 1.685,-1.685 2.632,-3.972 2.632,-6.354 v 0 -3.357 h 6 v 18.176 c -3.17,0.876 -5.5,3.773 -5.5,7.222 v 0 c 0,4.143 3.358,7.5 7.5,7.5 v 0 c 4.143,0 7.501,-3.357 7.501,-7.5 v 0 c 0,-3.449 -2.331,-6.346 -5.501,-7.222 v 0 -18.176 h 6 v 3.357 c 0,2.382 0.947,4.669 2.632,6.354 v 0 l 2.563,2.562 c -0.62,1.092 -0.978,2.35 -0.978,3.694 v 0 c 0,4.143 3.357,7.501 7.5,7.501 v 0 c 4.142,0 7.5,-3.358 7.5,-7.501 v 0 c 0,-4.141 -3.358,-7.5 -7.5,-7.5 v 0 c -1.344,0 -2.603,0.358 -3.694,0.978 v 0 l -2.909,-2.909 c -0.714,-0.713 -1.113,-1.68 -1.113,-2.689 v 0 -3.847 h 29.999 c 0,23.197 -18.804,42 -42,42 v 0 c -23.196,0 -41.999,-18.803 -41.999,-42 m 65.493,-4.004 v -33.181 c 0,-0.781 -0.472,-1.484 -1.194,-1.779 v 0 l -14.3,-5.846 V 130.71 l 28.878,11.871 c 3.099,1.274 5.122,4.293 5.122,7.642 v 0 39.381 z m -65.493,0 v -39.381 c 0,-3.349 2.022,-6.368 5.121,-7.642 v 0 l 28.878,-11.871 v 18.088 l -14.299,5.846 c -0.723,0.295 -1.195,0.998 -1.195,1.779 v 0 33.181 z"
               style="fill:url(#linearGradient3816);stroke:none"
               id="path3818"
               inkscape:connector-curvature="0" /></g></g></g></g></g></svg>